<?xml version="1.0" encoding="UTF-8"?> <!-- Generator: Adobe Illustrator 23.1.0, SVG Export Plug-In . SVG Version: 6.00 Build 0) --> <svg xmlns="http://www.w3.org/2000/svg" xmlns:xlink="http://www.w3.org/1999/xlink" id="Слой_1" x="0px" y="0px" viewBox="0 0 759.3 466.5" style="enable-background:new 0 0 759.3 466.5;" xml:space="preserve"> <style type="text/css"> .st0{clip-path:url(#SVGID_2_);fill:none;stroke:#F7F7F7;stroke-miterlimit:10;} </style> <g> <g> <defs> <rect id="SVGID_1_" x="0" y="0" width="759.3" height="466.5"></rect> </defs> <clipPath id="SVGID_2_"> <use xlink:href="#SVGID_1_" style="overflow:visible;"></use> </clipPath> <path class="st0" d="M753,466.5c0-82.6-52.4-139.7-84.7-167c-15.2-12.8-33.6-21.1-53.2-24.6c-1.7-0.3-3.4-0.7-5.1-1.1 c-1.8-0.6-3.5-1.3-5.2-2c-22.4-13.5-47.8-12.5-73.9-12.7c-31-0.1-12.9-38.1-16.3-57.4c-1.1-6.1-4.2-11.6-9-15 c-1.4-1.1-2.9-2.2-4.4-3.2c-6-4.1-12.4-7.8-18.2-12.2c-1.4-0.9-2.8-1.9-4.2-2.8c-4.2-2.8-8.4-5.7-12.5-8.8 c-5.4-4.3-10.8-8.6-13.9-15.1c-0.8-1.4-1.5-2.9-2.2-4.4c-3.2-7.5-4.6-15.5-2.2-24.2c0.3-1.4,0.4-2.7,0.3-3.9 c-0.6-6.2-6.3-10.7-12.6-11.9c-17.3-3.3-35-6.1-52.3-9.8c-5.7-1.1-11.8,0-16.9,2.9c-19.3,11.9-36.7,32.7-61.3,29.5 c-2-0.3-3.9-0.6-5.9-0.9c-3.7-0.6-7.3-1.2-10.9-1.8c-1.8-0.4-3.6-0.7-5.4-1c-18.1-4.4-31,11.7-44.6,21.2c-9,6.1-20.4,4.6-26.9-4.2 c-16.4-23.5-29.6-47.9-53.2-64.2c-1.2-1.3-2.4-2.6-3.5-4C145,55.3,140.6,38,134.2,22.3c-1.9-5.2-6.2-8.4-10.6-11.7 c-1.4-1.2-2.9-2.2-4.4-3.3c-7.1-5-16-4.5-23-0.3c-2.5,1.5-5.1,2.6-7.7,3.6C74.9,15.7,39,27.3-9.9,27.3 M722,466.5 c0-76.7-47.2-126.2-73-147.6c-11.6-9.6-25.9-15.3-40.8-16.7c-2.8-0.3-5.6-0.6-8.3-1.3c-1.7-0.4-3.5-0.8-5.1-1.5 c-2.8-1.2-5.6-2.6-8.4-3.6c-12.2-4.3-24.9-7.2-37.7-8.6c-8.4-0.9-16.9-1.4-25.5-2c-0.6,0-1.1,0-1.6-0.1c-2.5-0.3-4.7-0.8-6.6-1.6 c-18.3-7.7-5-38.4-7.6-55.6c-0.9-6-3.8-11.4-8.1-15.1c-1.4-1.1-2.7-2.2-4.1-3.3c-5.7-4.4-12-8.2-18-12.1c-1.4-0.9-2.8-1.7-4.2-2.6 c-3.3-1.9-6.5-3.9-9.7-5.9c-1-0.6-1.9-1.3-2.9-1.9c-5.5-3.8-10.7-7.7-14.3-13.4c-0.8-1.3-1.7-2.7-2.4-4 c-3.6-6.7-5.4-13.8-4.1-21.7c0.2-1.2,0.1-2.4-0.1-3.5c-1.1-5.6-6.8-9.7-13-10.8c-1.7-0.3-3.4-0.6-5.2-0.9c-1.9-0.3-3.8-0.7-5.7-1 c-13.7-2.3-27.5-4.6-41.1-7.2c-3.3-0.7-6.9-0.5-10.3,0.2c-2.2,0.5-4.4,1.2-6.5,2.3c-10.9,5.7-21.5,14.1-31.2,18.8 c-8.1,3.9-16.7,6.3-26.9,4c-1.9-0.4-3.7-0.8-5.5-1.3c-3.4-0.8-6.9-1.6-10.4-2.4c-1.8-0.4-3.5-0.8-5.3-1.2 c-2.5-0.6-4.9-0.9-7.3-0.9c-1.6-0.1-3.2,0.1-4.7,0.4c-12,2.2-22,11.7-32.4,17.7c-9,5.1-20.3,3.3-26.8-5.1c-2-2.6-3.9-5.3-5.8-7.9 c-1.9-2.6-3.7-5.1-5.6-7.7c-2.3-3.3-4.6-6.5-7-9.6c-0.7-1.1-1.5-2.1-2.3-3.1c-9.5-12.6-19.6-24.5-32.7-34.1 c-1.2-1.3-2.3-2.6-3.4-4c-7.4-9.5-11.9-21.7-16.5-33.7c-1.4-3.6-2.9-7.2-4.4-10.9c-2-5.1-6.1-8.4-10.4-11.7 c-1.4-1.1-2.8-2.2-4.3-3.3c-7.1-5-15.8-5-22.8-0.8c-2.5,1.5-5.1,2.7-7.8,3.7C70.6,39.1,34.8,50.6-14,50.6 M692,466.5 c0-101.5-70.5-133.9-70.5-133.9c-10.4-5-21.6-2.9-32.3-4.6c-1.7-0.3-3.4-0.6-5-1.1c-2.8-0.9-5.5-2-8.3-2.8 c-12.1-3.3-24.4-7.2-36.6-9.3c-8.1-1.4-16.2-2.5-24.4-3.6c-0.5,0-1-0.1-1.5-0.2c-2.4-0.4-4.5-1.1-6.3-1.9 c-17.6-8.3-5.2-37.7-7.3-55c-0.7-5.9-3.3-11.3-7.1-15.1c-1.2-1.2-2.4-2.4-3.7-3.5c-5.4-4.6-11.7-8.3-17.8-11.9 c-1.4-0.8-2.9-1.5-4.3-2.3c-3.3-1.7-6.6-3.4-9.8-5.2c-1-0.6-2-1.1-3-1.7c-5.6-3.2-11-6.6-14.8-11.6c-0.9-1.2-1.8-2.3-2.6-3.5 c-4.1-5.9-6.4-12.2-6-19.2c0.1-1-0.1-2.1-0.4-3.1c-1.6-4.9-7.2-8.6-13.4-9.7c-1.7-0.3-3.5-0.6-5.2-0.9c-1.9-0.4-3.8-0.7-5.7-1 c-13.6-2.2-27.4-4.2-40.9-6.7c-3.4-0.6-6.9-0.5-10.3,0.1c-2.2,0.4-4.4,1-6.5,2c-11.1,5-22.4,12.4-30.8,15.4 c-7,2.5-14.7,3.8-24,0.7c-1.7-0.5-3.4-1.1-5.1-1.7c-3.2-1.1-6.5-2.1-9.9-3.1c-1.7-0.5-3.5-0.9-5.2-1.4c-2.5-0.7-4.8-1.1-7.2-1.2 c-1.6-0.1-3.1,0-4.6,0.2c-11.9,1.4-22,9.4-32.3,14.2c-8.9,4.2-19.8,2.2-26.5-5.9c-2.1-2.5-4-5-6-7.5s-3.9-5-5.8-7.4 c-2.4-3.1-4.8-6.1-7.2-9.1c-0.8-1-1.6-1.9-2.4-2.9c-9.9-12-19.8-23.8-32.4-33.6c-1.1-1.3-2.3-2.6-3.3-4 c-7.3-9.5-11.8-21.3-16.6-33.1c-1.4-3.5-3-7.1-4.5-10.7c-2.1-5-6-8.2-10.2-11.6c-1.3-1.1-2.7-2.2-4.2-3.3 c-6.9-5-15.3-5.3-22.3-1.1c-2.5,1.5-5.2,2.7-8,3.8c-13.7,5.2-49.4,16.6-98,16.6 M663,466.5c0-71.7-48.2-104.5-53-107.6 c-0.2-0.2-0.5-0.3-0.8-0.4c-10.3-4.5-21-2.2-31.4-3.1c-1.6-0.1-3.3-0.3-4.9-0.7c-2.7-0.6-5.4-1.5-8.2-2 c-12.1-2.2-24.1-7.1-35.6-10c-7.6-1.9-15.4-3.6-23.2-5.3c-0.5-0.1-0.9-0.2-1.4-0.3c-2.3-0.5-4.3-1.3-6-2.2 c-17.1-9.1-5.6-37.1-7.1-54.5c-0.5-5.9-2.8-11.2-6.1-15.2c-1.1-1.3-2.2-2.5-3.4-3.7c-5-4.9-11.3-8.5-17.6-11.8 c-1.4-0.8-2.9-1.4-4.3-2.1c-3.3-1.5-6.7-3-9.9-4.5c-1-0.5-2-0.9-3-1.4c-5.6-2.7-11.1-5.6-15.2-9.9c-0.9-1-1.9-2-2.8-3 c-4.4-5.1-7.3-10.6-7.8-16.7c-0.1-1-0.4-1.9-0.8-2.8c-2-4.4-7.7-7.7-13.8-8.7c-1.7-0.3-3.5-0.6-5.2-0.9c-1.8-0.3-3.7-0.6-5.6-0.9 c-13.6-2.2-27.3-4-40.7-6.3c-3.4-0.6-6.8-0.5-10.2,0c-2.2,0.4-4.4,1-6.5,1.8c-11.2,4.4-23.2,10.7-30.3,12 c-6,1.1-12.7,1.3-21.2-2.5c-1.6-0.6-3.1-1.4-4.7-2.1c-3-1.3-6.1-2.6-9.4-3.7c-1.6-0.6-3.3-1.1-5-1.6c-2.3-0.8-4.6-1.2-7-1.4 c-1.5-0.2-3-0.2-4.5-0.1c-11.8,0.5-22,6.9-32.3,10.6c-8.9,3.1-19.5,0.8-26.3-6.8c-2.1-2.3-4.1-4.7-6.1-7.1c-2-2.3-3.9-4.7-5.9-7 c-2.5-2.9-4.9-5.8-7.4-8.6c-0.8-0.9-1.6-1.9-2.4-2.8c-10.1-11.5-19.9-23.2-32-33.1c-1.1-1.2-2.2-2.5-3.2-3.9 c-7.2-9.4-11.8-21-16.7-32.5c-1.4-3.3-3-6.9-4.6-10.4c-2.2-4.8-6-8.1-10-11.5c-1.3-1.2-2.7-2.2-4.1-3.3c-6.6-5-14.9-5.6-21.8-1.3 c-2.5,1.5-5.2,2.7-7.9,3.8C62,86.1,26.2,97.6-22.5,97.6 M633,466.5c0-47.9-28.5-76.8-33.5-81.5c-0.5-0.4-1-0.8-1.6-1 c-10-4-20.4-1.4-30.4-1.6c-1.6,0-3.2-0.1-4.8-0.3c-2.7-0.4-5.4-0.9-8.1-1.2c-12.1-1.1-23.6-7.1-34.5-10.7 c-7.3-2.4-14.7-4.7-22.1-6.9c-0.5-0.1-0.9-0.2-1.4-0.4c-2.1-0.7-4-1.6-5.7-2.6c-16.6-9.8-5.9-36.5-6.9-53.9 c-0.3-5.8-2.2-11.1-5.1-15.2c-0.9-1.4-1.9-2.7-3-3.9c-4.6-5.2-10.9-8.6-17.3-11.6c-1.4-0.7-2.8-1.3-4.3-1.9 c-3.4-1.3-6.8-2.6-10-3.8c-1-0.3-2-0.7-3-1.1c-5.7-2.3-11.3-4.6-15.7-8.2c-1-0.8-2-1.7-3-2.5c-4.8-4.3-8.3-9-9.7-14.2 c-0.2-0.9-0.6-1.6-1.1-2.4c-2.5-3.8-8.1-6.7-14.2-7.6c-1.7-0.2-3.5-0.5-5.2-0.8c-1.9-0.3-3.7-0.6-5.6-0.9 c-13.5-2-27.1-3.7-40.5-5.8c-3.4-0.5-6.8-0.5-10.2-0.1c-2.1,0.3-4.3,0.8-6.5,1.5c-11.4,3.7-23.9,9-29.9,8.6 c-4.9-0.3-10.7-1.4-18.3-5.8c-1.4-0.8-2.8-1.7-4.3-2.5c-2.8-1.5-5.7-3-8.9-4.3c-1.6-0.6-3.2-1.2-4.9-1.8c-2.3-0.8-4.6-1.3-6.9-1.6 c-1.5-0.2-2.9-0.3-4.4-0.3c-11.7-0.3-21.9,4.6-32.2,7.1c-8.8,2.2-19.1-0.4-26.1-7.6c-2.1-2.2-4.2-4.5-6.3-6.7s-4.1-4.4-6.1-6.6 c-2.5-2.8-5-5.5-7.6-8.2c-0.8-0.8-1.7-1.7-2.5-2.6c-10.4-10.9-20.1-22.4-31.6-32.5c-1.2-1.3-2.2-2.6-3.2-3.9 c-7-9.4-11.7-20.7-16.8-31.9c-1.5-3.3-3.2-6.7-4.8-10.2c-2.2-4.7-5.9-8.2-9.8-11.5c-1.3-1.1-2.6-2.3-4-3.3 c-6.6-4.9-14.6-5.9-21.6-1.6c-2.5,1.6-5.2,2.8-8,3.8c-13.7,5.2-49.4,16.6-98,16.6 M606,466.5c0-26.2-13.5-48.7-17.2-54.6 c-0.6-1-1.6-1.7-2.7-2.1c-9.7-3.3-19.5-0.6-29,0c-1.6,0.1-3.1,0.2-4.7,0.1c-2.6-0.1-5.2-0.4-7.9-0.4c-12,0-23.1-7.1-33.4-11.4 c-7-2.9-14-5.7-21-8.5c-0.5-0.1-0.9-0.3-1.3-0.5c-2-0.9-3.8-1.8-5.5-2.9c-16-10.6-6.2-35.9-6.6-53.4c-0.2-5.7-1.8-11-4.2-15.3 c-0.8-1.4-1.7-2.8-2.7-4c-4.2-5.5-10.6-8.9-17.1-11.5c-1.5-0.6-2.9-1.1-4.4-1.6c-3.4-1.1-6.9-2.1-10.1-3.1 c-1.1-0.3-2.1-0.6-3.1-0.9c-5.8-1.8-11.5-3.6-16.1-6.5c-1.1-0.7-2.3-1.3-3.3-2c-5.3-3.4-9.3-7.3-11.6-11.7c-0.3-0.7-0.9-1.4-1.5-2 c-3-3.2-8.7-5.6-14.7-6.5c-1.7-0.3-3.4-0.5-5.1-0.8c-1.9-0.3-3.7-0.5-5.6-0.8c-13.4-1.9-26.9-3.3-40.2-5.3 c-3.4-0.5-6.8-0.5-10.1-0.2c-2.1,0.2-4.3,0.6-6.5,1.2c-11.6,3.1-24.6,7.4-29.5,5.2c-3.8-1.7-8.7-4-15.5-9.1c-1.3-1-2.5-2-3.9-2.9 c-2.6-1.7-5.3-3.4-8.4-4.9c-1.5-0.7-3.1-1.4-4.7-2c-2.2-0.9-4.5-1.5-6.8-1.9c-1.5-0.3-3-0.5-4.4-0.6c-11.5-1-21.8,2.2-32.1,3.6 c-8.8,1.2-18.8-1.7-25.9-8.5c-2.2-2.1-4.4-4.3-6.5-6.4c-2.1-2-4.2-4.1-6.3-6.2c-2.6-2.6-5.2-5.2-7.8-7.7c-0.9-0.8-1.7-1.7-2.6-2.5 c-10.6-10.3-20.2-21.7-31.2-32c-1.1-1.3-2.1-2.6-3.1-3.9c-6.8-9.3-11.7-20.4-16.9-31.3c-1.5-3.2-3.2-6.6-4.9-10 c-2.3-4.6-5.8-8.1-9.6-11.4c-1.2-1.2-2.6-2.3-3.9-3.3c-6.3-4.9-14.2-6.2-21.1-1.9c-2.6,1.6-5.3,2.8-8.1,3.9 c-13.8,5.2-49.5,16.6-97.9,16.6 M584.7,466.5c0-12.7-4.8-23.7-7-28.1c-0.6-1.3-1.8-2.3-3.1-2.7c-9.7-2.9-19.1-0.1-28.3,1.3 c-1.5,0.2-3.1,0.4-4.6,0.5c-2.6,0.2-5.2,0.2-7.8,0.4c-12.1,1-22.8-7.2-32.4-12.2c-6.7-3.5-13.2-6.9-19.9-10.2 c-0.4-0.2-0.8-0.4-1.2-0.6c-1.9-1-3.6-2-5.2-3.2c-15.4-11.4-6.5-35.4-6.4-52.9c0-5.6-1.2-10.9-3.2-15.3c-0.7-1.5-1.4-2.9-2.3-4.2 c-3.9-5.7-10.3-9-16.9-11.3c-1.4-0.6-2.9-1-4.4-1.4c-3.5-0.9-7-1.7-10.2-2.4c-1-0.2-2.1-0.4-3.1-0.6c-5.9-1.2-11.7-2.5-16.6-4.7 c-1.2-0.6-2.4-1.1-3.5-1.6c-5.6-2.6-10.3-5.7-13.4-9.2c-0.4-0.6-1.1-1.1-1.8-1.6c-3.4-2.5-9.1-4.6-15.1-5.4 c-1.7-0.2-3.4-0.4-5.1-0.7c-1.8-0.3-3.6-0.6-5.5-0.8c-13.3-1.8-26.8-3-40-4.8c-3.3-0.4-6.7-0.5-10-0.3c-2.1,0.1-4.3,0.4-6.5,0.9 c-11.8,2.4-25.3,5.9-29.1,1.8c-2.7-2.9-6.8-6.6-12.7-12.4c-1.1-1.1-2.3-2.2-3.5-3.3c-2.3-2-5-3.9-7.9-5.5c-1.5-0.8-3-1.6-4.6-2.3 c-2.2-1-4.4-1.6-6.7-2.1c-1.5-0.4-2.9-0.7-4.3-0.9c-11.5-1.9-21.8-0.1-32.1,0.1c-8.7,0.2-18.4-2.9-25.7-9.3c-2.2-2-4.4-4-6.6-6 c-2.1-2-4.3-4-6.4-5.9c-2.7-2.5-5.3-4.9-8-7.3c-0.8-0.8-1.7-1.5-2.6-2.3c-10.9-9.8-20.3-21-30.8-31.5c-1.1-1.3-2-2.6-3-3.9 c-6.7-9.3-11.6-20.1-17-30.7c-1.6-3-3.2-6.3-5-9.7c-2.3-4.5-5.8-8-9.4-11.4c-1.3-1.2-2.6-2.3-3.9-3.3c-6.2-4.9-13.8-6.4-20.8-2.1 c-2.5,1.6-5.3,2.8-8,3.9c-13.7,5.2-49.4,16.6-98,16.6 M567,466.5c0-0.2,0-0.3,0-0.5c0-2.3-1.8-4.2-4-4.8 c-9.4-2.4-18.4,0.7-27.1,2.8c-1.5,0.4-3,0.7-4.5,1c-2.6,0.4-5.1,0.7-7.7,1.2c-12,2.1-22.3-7.2-31.3-12.9 c-6.3-4-12.5-7.9-18.8-11.8c-0.4-0.2-0.8-0.5-1.2-0.7c-1.7-1.1-3.4-2.3-4.9-3.5c-14.9-12-6.9-34.7-6.2-52.3 c0.2-5.6-0.6-10.9-2.2-15.4c-0.6-1.5-1.2-3-2-4.3c-3.5-6-9.8-9.2-16.6-11.2c-1.5-0.4-3-0.8-4.5-1.1c-3.6-0.7-7.2-1.3-10.4-1.7 c-1.1-0.2-2.1-0.3-3.2-0.4c-5.9-0.7-11.9-1.5-17-3c-1.3-0.4-2.5-0.7-3.7-1.1c-6-1.8-11.3-4-15.3-6.7c-0.6-0.4-1.4-0.8-2.2-1.2 c-3.9-1.9-9.6-3.6-15.5-4.3c-1.7-0.2-3.4-0.5-5.1-0.7c-1.8-0.2-3.6-0.5-5.5-0.7c-13.2-1.6-26.6-2.7-39.8-4.3 c-3.3-0.5-6.7-0.6-10-0.5c-2,0-4.2,0.3-6.5,0.6c-12,1.9-26.2,4.6-28.7-1.5c-1.6-4.1-4.7-9.2-9.8-15.6c-1-1.2-2-2.5-3.1-3.7 c-2.1-2.3-4.6-4.4-7.4-6.2c-1.3-0.9-2.8-1.7-4.4-2.5c-2.1-1-4.3-1.8-6.6-2.3c-1.4-0.4-2.8-0.8-4.2-1.1c-11.3-2.6-21.7-2.4-32-3.4 c-8.7-0.8-18.1-4.2-25.5-10.2c-2.3-1.9-4.5-3.7-6.8-5.6c-2.2-1.8-4.4-3.7-6.6-5.5c-2.7-2.3-5.5-4.6-8.2-6.8 c-0.9-0.7-1.8-1.5-2.7-2.2c-11.2-9.3-20.5-20.3-30.5-31c-1-1.3-2-2.6-2.9-3.9c-6.6-9.2-11.6-19.8-17.1-30.1 c-1.5-2.9-3.3-6.2-5.1-9.5c-2.4-4.3-5.7-8-9.2-11.3c-1.3-1.2-2.5-2.3-3.8-3.3c-6-4.7-13.1-6.6-20-2.6c-2.5,1.5-5,2.8-7.7,3.8 c-13.1,5-49.3,16.9-98.8,16.9 M554.1,488.2c-10.3-3.7-20,0.2-29.4,3.2c-1.5,0.5-2.9,1-4.4,1.4c-2.4,0.7-5,1.3-7.5,2 c-12,3.3-21.8-7.2-30.2-13.6c-5.9-4.5-11.7-9-17.6-13.4c-0.4-0.2-0.7-0.5-1.1-0.8c-1.6-1.2-3.1-2.5-4.6-3.8 c-14.2-12.8-7.2-34.2-5.9-51.8c0.4-5.5,0-10.7-1.2-15.4c-0.4-1.7-0.9-3.1-1.6-4.5c-3.1-6.4-9.5-9.4-16.4-11.1 c-1.5-0.4-3-0.7-4.5-0.9c-3.7-0.5-7.3-0.8-10.5-1c-1.1-0.1-2.1-0.1-3.2-0.1c-6.1-0.2-12.1-0.5-17.5-1.3c-1.3-0.2-2.6-0.4-3.9-0.6 c-6.4-1-12.3-2.4-17.2-4.2c-0.8-0.3-1.7-0.6-2.6-0.9c-4.3-1.4-10-2.6-15.9-3.3c-1.6-0.1-3.3-0.4-5-0.6c-1.8-0.3-3.7-0.5-5.5-0.7 c-13.2-1.5-26.5-2.3-39.6-3.8c-3.3-0.3-6.6-0.5-9.9-0.5c-2-0.1-4.2,0.1-6.5,0.3c-12.2,1.1-27.2,3-28.3-5c-0.7-5.3-2.7-11.8-7-18.9 c-0.8-1.4-1.7-2.8-2.7-4.1c-1.9-2.5-4.2-4.8-6.9-6.8c-1.3-1-2.8-1.9-4.3-2.7c-2.1-1.1-4.2-2-6.5-2.6c-1.4-0.5-2.7-1-4.1-1.4 c-11.2-3.4-21.6-4.8-31.9-6.9c-8.5-1.7-17.7-5.4-25.2-11c-2.4-1.7-4.7-3.4-7-5.2c-2.3-1.7-4.5-3.4-6.8-5.1 c-2.8-2.2-5.6-4.3-8.4-6.4c-1-0.7-1.9-1.4-2.8-2.1c-11.5-8.7-20.7-19.6-30.1-30.4c-0.9-1.2-1.9-2.5-2.8-3.8 c-6.3-9.2-11.4-19.5-17.1-29.5c-1.6-2.9-3.4-6-5.3-9.3c-2.4-4.1-5.5-7.9-8.9-11.2c-1.2-1.2-2.5-2.3-3.7-3.3 c-5.8-4.7-12.7-7-19.6-2.9c-2.5,1.5-5,2.8-7.7,3.8c-13.1,5.1-49.3,17-98.8,17 M543.1,514.1c-10.3-3.4-19.7,0.6-28.9,4.5 c-1.4,0.6-2.9,1.2-4.3,1.8c-2.4,1-4.9,1.9-7.4,2.8c-12,4.4-21.4-7.3-29.2-14.3c-5.5-5-11-10-16.5-15c-0.3-0.3-0.7-0.6-1-0.9 c-1.5-1.4-2.9-2.8-4.3-4.2c-13.7-13.5-7.5-33.6-5.7-51.3c0.6-5.4,0.5-10.7-0.2-15.5c-0.3-1.8-0.7-3.3-1.3-4.7 c-2.7-6.7-9.2-9.6-16.2-10.9c-1.5-0.3-3.1-0.5-4.6-0.6c-3.7-0.3-7.3-0.4-10.6-0.3c-1.1,0.1-2.1,0.1-3.2,0.2 c-6.1,0.2-12.2,0.5-17.9,0.4c-1.4,0-2.7-0.1-4.1-0.1c-6.7-0.2-13.2-0.7-19-1.7c-0.9-0.2-1.9-0.3-2.9-0.5 c-4.7-0.8-10.5-1.6-16.3-2.2c-1.7-0.2-3.3-0.4-5-0.6c-1.8-0.2-3.7-0.4-5.5-0.6c-13.1-1.4-26.4-2-39.4-3.3 c-3.2-0.3-6.6-0.6-9.8-0.7c-2,0-4.2,0-6.5,0.1c-12.4,0.6-28.2,1.6-27.9-8.3c0.1-6.7-0.8-14.5-4.2-22.2c-0.7-1.5-1.4-3.1-2.3-4.5 c-1.7-2.7-3.8-5.2-6.4-7.4c-1.2-1-2.6-2-4.1-2.9c-2-1.1-4.1-2.1-6.4-2.8c-1.4-0.6-2.8-1.2-4.1-1.7c-11.1-4.3-21.6-7.2-31.9-10.5 c-8.5-2.8-17.3-6.7-25-11.9c-2.5-1.7-4.8-3.3-7.2-4.9c-2.3-1.6-4.6-3.2-6.9-4.8c-3-2-5.8-4-8.7-5.9c-0.9-0.6-1.9-1.3-2.8-1.9 c-11.7-8.1-20.8-18.9-29.7-29.9c-0.9-1.2-1.8-2.5-2.7-3.8c-6.3-9.1-11.5-19.2-17.3-28.9c-1.6-2.7-3.5-5.8-5.4-9 c-2.4-4-5.4-7.8-8.7-11.1c-1.2-1.2-2.4-2.3-3.6-3.3c-5.6-4.7-12.3-7.2-19.1-3.2c-2.5,1.5-5.1,2.9-7.9,4 c-13.2,5.1-49.3,16.9-98.7,16.9 M531.9,539.7c-10.2-3.2-19.5,1.1-28.4,5.8c-1.4,0.7-2.8,1.5-4.2,2.2c-2.4,1.2-4.9,2.5-7.3,3.6 c-11.9,5.6-20.9-7.3-28.1-15c-5.2-5.5-10.3-11.1-15.4-16.6c-0.3-0.3-0.6-0.6-0.9-1c-1.4-1.5-2.7-3-4.1-4.5 c-13.1-14.1-7.9-33-5.5-50.7c0.8-5.3,1.1-10.5,0.8-15.5c-0.1-1.9-0.4-3.5-0.9-4.9c-2.4-6.9-8.8-9.7-16-10.7 c-1.5-0.2-3-0.3-4.6-0.4c-3.7-0.1-7.4,0.1-10.7,0.4c-1.1,0.1-2.2,0.2-3.3,0.4c-6.1,0.7-12.3,1.6-18.3,2.1 c-1.4,0.1-2.9,0.3-4.3,0.4c-7.2,0.6-14.2,1-20.9,0.8c-1.1,0-2.2,0-3.3-0.1c-5.3-0.2-11-0.6-16.8-1.1c-1.7-0.1-3.3-0.3-5-0.5 c-1.8-0.3-3.6-0.4-5.4-0.6c-13-1.2-26.2-1.7-39.2-2.8c-3.3-0.3-6.5-0.6-9.8-0.8c-1.9-0.1-4.2-0.2-6.5-0.2 c-12.6-0.2-29.1-0.1-27.5-11.8c1.1-7.9,1.4-17-1.3-25.4c-0.5-1.7-1.1-3.3-1.9-4.9c-1.5-2.9-3.4-5.6-5.9-8c-1.2-1.1-2.5-2.2-4-3.1 c-1.8-1.2-3.9-2.2-6.2-3c-1.3-0.6-2.7-1.3-4-1.9c-10.9-5.2-21.5-9.5-31.8-14c-8.5-3.7-17-7.9-24.8-12.7c-2.5-1.5-4.9-3-7.3-4.5 c-2.4-1.5-4.7-3-7.1-4.4c-2.9-1.8-5.9-3.6-8.8-5.4c-1-0.6-1.9-1.2-2.9-1.8c-12.1-7.6-21-18.2-29.4-29.4c-0.9-1.2-1.7-2.5-2.6-3.8 c-6-9.1-11.3-18.9-17.3-28.3c-1.6-2.5-3.5-5.5-5.5-8.7c-2.5-3.9-5.3-7.8-8.5-11.1c-1.2-1.2-2.3-2.3-3.5-3.3 c-5.6-4.6-12-7.4-18.8-3.4c-2.6,1.6-5.3,3-8.1,4c-13.4,5.1-49.4,16.8-98.4,16.8 M521.1,566c-14.7-4.4-26.7,7-39.2,14.1 c-11.8,6.9-20.5-7.2-27-15.7c-5.2-6.4-10.2-13-15.2-19.4c-1.3-1.6-2.5-3.2-3.8-4.8c-16.9-18.6-3.9-43.2-3.5-65.7 c0.1-17.7-19.3-16.9-31.8-14.7c-25.1,4.9-49.9,11.5-75.2,8.4c-1.8-0.2-3.6-0.3-5.4-0.5c-16.2-1.4-32.7-1.4-48.7-3.2 c-12.2-1.4-37,0.3-33.6-15.7c4.3-18.5,5.1-41.2-15.3-49.3c-1.3-0.7-2.6-1.5-3.9-2.2c-19.7-10.9-38.7-21.4-56.4-31.1 c-2.5-1.4-5-2.7-7.5-4.1c-2.5-1.3-4.9-2.7-7.3-4c-3.1-1.7-6.1-3.3-9.1-5c-1.1-0.5-2-1.1-3-1.6c-23.1-13.6-34.3-38.3-49-60.4 c-8-11.5-20-36.1-35.4-26.7c-2.8,1.7-5.6,3.2-8.6,4.4C28.6,274-7.2,285.5-56,285.5"></path> </g> </g> </svg> 