<?xml version="1.0" encoding="UTF-8"?> <svg xmlns="http://www.w3.org/2000/svg" width="57" height="64" viewBox="0 0 57 64" fill="none"> <path d="M23.1831 62.7847L23.1812 62.7843C17.5079 61.7272 12.7444 57.9282 9.1089 52.7173C5.47446 47.5079 2.99667 40.9256 1.89042 34.3978C0.802573 27.851 1.07057 21.367 2.6577 15.9051C4.24551 10.4408 7.14049 6.03754 11.2778 3.57652C15.4602 1.1097 20.9464 0.527164 26.6552 1.65392C32.3597 2.77983 38.2459 5.60616 43.1894 9.89722C53.1109 18.5092 59.1438 32.9101 54.6002 44.4687C52.2878 50.256 47.2968 55.3881 41.422 58.8002C35.544 62.2141 28.8547 63.8642 23.1831 62.7847Z" stroke="url(#paint0_linear)"></path> <defs> <linearGradient id="paint0_linear" x1="-15.8957" y1="31.4271" x2="68.5873" y2="24.0885" gradientUnits="userSpaceOnUse"> <stop stop-color="#AF6161"></stop> <stop offset="1" stop-color="#EAA3A3"></stop> </linearGradient> </defs> </svg> 