<?xml version="1.0" encoding="UTF-8"?> <svg xmlns="http://www.w3.org/2000/svg" width="82" height="93" viewBox="0 0 82 93" fill="none"> <path d="M32.7218 91.0774L32.7199 91.0771C24.3819 89.5234 17.3998 83.9437 12.0844 76.325C6.77018 68.7079 3.15144 59.0908 1.53598 49.5581C-0.0527899 39.9972 0.337023 30.5208 2.65905 22.5297C4.98176 14.5363 9.22473 8.0674 15.3134 4.44585C21.4646 0.817809 29.5138 -0.0291902 37.8643 1.61898C46.2106 3.2663 54.8173 7.39995 62.0445 13.6733C76.5336 26.2501 85.3866 47.3159 78.7217 64.2688C75.3314 72.7537 68.023 80.2616 59.4362 85.2489C50.846 90.238 41.0498 92.6625 32.7218 91.0774Z" stroke="url(#paint0_linear)"></path> <defs> <linearGradient id="paint0_linear" x1="-24.137" y1="45.1945" x2="98.8761" y2="34.5091" gradientUnits="userSpaceOnUse"> <stop stop-color="#AF6161"></stop> <stop offset="1" stop-color="#EAA3A3"></stop> </linearGradient> </defs> </svg> 