<?xml version="1.0" encoding="UTF-8"?> <svg xmlns="http://www.w3.org/2000/svg" width="105" height="118" viewBox="0 0 105 118" fill="none"> <path d="M42.4411 116.604L42.4392 116.603C31.766 114.614 22.8394 107.474 16.0518 97.7453C9.2654 88.018 4.64673 75.7411 2.585 63.5749C0.557261 51.3725 1.05384 39.2736 4.01992 29.0661C6.98666 18.8563 12.4109 10.5771 20.2097 5.93839C28.0862 1.29254 38.3817 0.213734 49.0475 2.31888C59.7091 4.42318 70.7001 9.70254 79.9288 17.7132C98.4207 33.7645 109.745 60.671 101.222 82.3514C96.8867 93.2007 87.5472 102.791 76.5833 109.159C65.6162 115.529 53.0972 118.632 42.4411 116.604Z" stroke="url(#paint0_linear)"></path> <defs> <linearGradient id="paint0_linear" x1="-30" y1="57.9908" x2="126.781" y2="44.3721" gradientUnits="userSpaceOnUse"> <stop stop-color="#AF6161"></stop> <stop offset="1" stop-color="#EAA3A3"></stop> </linearGradient> </defs> </svg> 