<svg xmlns="http://www.w3.org/2000/svg" width="169" height="170" viewBox="0 0 169 170" fill="none"> <path d="M127.064 75.5656C126.457 72.8774 151.48 62.5001 150.528 60.0006C149.56 57.4309 123.967 66.3488 122.658 63.9853C121.323 61.5907 142.391 44.5725 140.762 42.4289C139.108 40.2542 117.098 56.0448 115.175 54.1523C113.213 52.2502 128.624 29.9723 126.433 28.3621C124.241 26.7519 107.545 48.0827 105.171 46.8092C102.775 45.522 111.321 19.827 108.764 18.8901C106.229 17.9668 96.1964 43.1296 93.5393 42.5662C90.9039 42.0164 91.8257 14.9406 89.1075 14.7604C86.4283 14.5898 83.949 41.5556 81.2126 41.7856C78.5466 41.9999 71.7932 15.7708 69.105 16.3778C66.4168 16.9847 71.5889 43.5709 69.0894 44.523C66.5196 45.4911 52.694 22.2068 50.3482 23.5121C47.9536 24.8468 60.4336 48.878 58.294 50.5245C56.0978 52.1652 36.244 33.7507 34.3555 35.6913C32.4494 37.6359 51.211 57.1834 49.5969 59.3575C47.9866 61.5492 23.7448 49.462 22.4713 51.8362C21.1841 54.2319 44.6551 67.7304 43.7358 70.2831C42.8125 72.8183 16.1573 68.0345 15.5939 70.6915C15.0441 73.327 41.3802 79.6416 41.2039 82.3774C41.0333 85.0565 14.1133 88.0142 14.3258 90.7546C14.5401 93.4207 41.5943 92.0391 42.2013 94.7273C42.8083 97.4155 17.7853 107.793 18.7374 110.292C19.7054 112.862 45.298 103.944 46.6073 106.308C47.942 108.702 26.8744 125.721 28.5033 127.864C30.1577 130.039 52.1672 114.248 54.0902 116.141C56.0348 118.047 40.6235 140.325 42.8152 141.935C45.0069 143.545 61.7031 122.214 64.0772 123.488C66.473 124.775 57.927 150.47 60.4837 151.407C63.0188 152.33 73.0515 127.167 75.7085 127.731C78.344 128.281 77.4221 155.356 80.1404 155.537C82.8195 155.707 85.2988 128.741 88.0352 128.511C90.7013 128.297 97.4547 154.526 100.143 153.919C102.831 153.312 97.659 126.726 100.158 125.774C102.728 124.806 116.554 148.09 118.9 146.785C121.294 145.45 108.814 121.419 110.954 119.772C113.128 118.118 132.982 136.533 134.875 134.61C136.781 132.665 118.019 113.118 119.633 110.943C121.244 108.752 145.485 120.839 146.759 118.465C148.046 116.069 124.558 102.575 125.494 100.018C126.418 97.4827 153.073 102.266 153.636 99.6094C154.186 96.974 127.85 90.6593 128.026 87.9235C128.197 85.2444 155.117 82.2867 154.904 79.5463C154.712 76.8938 127.671 78.2538 127.064 75.5656Z" stroke="#B06362" stroke-miterlimit="10"/> </svg>
